<svg id="uuid-8c92b008-41b7-427a-8a42-03083067bf2e" xmlns="http://www.w3.org/2000/svg" viewBox="0 0 20 20">
  <defs>
    <style>
      .uuid-83e6dca3-4a34-4606-9ba2-b9b5422186b4 {
        stroke-width: 0px;
      }
    </style>
  </defs>
  <path class="uuid-83e6dca3-4a34-4606-9ba2-b9b5422186b4" d="m5.73,20.04c-.6-.18-.96-.67-1.34-1.11-.35-.4-.28-1.01.1-1.4.52-.52,1.04-1.04,1.56-1.56,1.91-1.91,3.82-3.82,5.73-5.73.05-.05.13-.09.21-.15-.1-.1-.15-.16-.21-.22-2.39-2.39-4.79-4.79-7.18-7.18-.56-.56-.56-1.17,0-1.73.17-.17.34-.34.51-.51.49-.48,1.12-.49,1.61,0,.73.72,1.45,1.45,2.18,2.18,2.19,2.19,4.38,4.38,6.58,6.57.37.37.51.78.32,1.27-.07.17-.2.32-.33.45-2.49,2.5-4.99,4.99-7.48,7.49-.33.33-.66.65-.98.98-.27.27-.53.55-.92.66h-.35Z"/>
</svg>