<svg id="uuid-0d64229f-079f-4f7e-8a6a-1aec79c66a6e" data-name="Слой 1" xmlns="http://www.w3.org/2000/svg" viewBox="0 0 19.5 25">
  <defs>
    <style>
      .uuid-1c2c89b3-14ad-4274-a843-fae30ff30839 {
        stroke-width: 0px;
      }
    </style>
  </defs>
  <path class="uuid-1c2c89b3-14ad-4274-a843-fae30ff30839" d="m4.84,5.62c-.11-1.76.39-3.25,1.69-4.4C7.45.4,8.53,0,9.75,0c1.46,0,2.7.57,3.67,1.68.98,1.11,1.32,2.44,1.23,3.94.15,0,.26,0,.38,0,.61.01,1.22-.03,1.82.06,1.09.15,1.92,1.13,1.98,2.25.12,2.3.22,4.6.33,6.9.12,2.52.24,5.03.34,7.55.05,1.26-.7,2.26-1.85,2.54-.21.05-.44.08-.66.08-4.83,0-9.65,0-14.48,0-1.48,0-2.56-1.1-2.51-2.6.06-1.78.16-3.56.24-5.34.08-1.65.15-3.3.23-4.95.07-1.42.12-2.85.21-4.27.07-1.2,1.14-2.2,2.35-2.22.59-.01,1.18,0,1.82,0Zm4.91,17.73c2.4,0,4.81,0,7.21,0,.58,0,.95-.36.93-.91-.04-1.09-.1-2.19-.15-3.28-.1-2.07-.19-4.13-.29-6.2-.07-1.61-.14-3.21-.22-4.82-.03-.62-.37-.93-.97-.93-4.34.01-8.69.03-13.03.04-.62,0-.94.3-.97.93-.13,2.66-.25,5.33-.37,7.99-.09,2.03-.18,4.06-.28,6.09-.03.74.27,1.08,1.01,1.08,2.38,0,4.76,0,7.13,0Zm3.28-17.75c.12-1.54-.35-2.77-1.67-3.53-1.22-.7-2.46-.61-3.59.24-1.08.81-1.43,1.95-1.3,3.29h6.56Z"/>
  <path class="uuid-1c2c89b3-14ad-4274-a843-fae30ff30839" d="m9.76,14.02c-2.3-.02-4.27-1.6-4.79-3.85-.12-.53.1-.98.56-1.09.48-.12.89.15,1.03.69.35,1.38,1.22,2.25,2.58,2.56,1.64.37,3.35-.7,3.8-2.36.03-.12.06-.24.09-.35.14-.42.55-.65.98-.54.41.1.67.52.59.96-.36,1.99-2.17,3.71-4.16,3.92-.23.02-.46.04-.69.06Z"/>
</svg>