<?xml version="1.0" encoding="UTF-8"?>
<svg id="uuid-9e34250e-c54e-48b3-a6be-72bb539b006f" data-name="Слой 2" xmlns="http://www.w3.org/2000/svg" viewBox="0 0 300 380">
  <defs>
    <style>
      .uuid-69204812-78c5-4a20-bc3c-762047b7f6ad {
        fill: #2D4F36;
      }

      .uuid-69204812-78c5-4a20-bc3c-762047b7f6ad, .uuid-2c4e9ae8-3cc0-4580-9d7b-cb8c452a2a42, .uuid-2c4e36ac-3cda-4f1d-98af-fa099bb956a8, .uuid-41eb2580-9108-409c-93df-d774825ed8f0, .uuid-11399ef6-a852-49c1-9b07-0cb573db156e, .uuid-d8f60de8-c707-4adb-a243-dfd126a337d3, .uuid-fdbd4608-a051-4288-b1d4-e97fd5684bec, .uuid-fdb55a12-ab96-4199-8195-df2518b80661 {
        stroke-width: 0px;
      }

      .uuid-2c4e9ae8-3cc0-4580-9d7b-cb8c452a2a42 {
        fill: #3A5F44;
      }

      .uuid-2c4e36ac-3cda-4f1d-98af-fa099bb956a8 {
        fill: #B89655;
      }

      .uuid-41eb2580-9108-409c-93df-d774825ed8f0 {
        fill: #1E3826;
      }

      .uuid-11399ef6-a852-49c1-9b07-0cb573db156e {
        fill: #D4BD8A;
      }

      .uuid-d8f60de8-c707-4adb-a243-dfd126a337d3 {
        fill: #C4A462;
      }

      .uuid-fdbd4608-a051-4288-b1d4-e97fd5684bec {
        fill: #9C7A3C;
      }

      .uuid-fdb55a12-ab96-4199-8195-df2518b80661 {
        fill: #24412B;
      }
    </style>
  </defs>
  <g id="uuid-0282ae02-d69c-4c3c-b961-aff61f92351b" data-name="Слой 1">
    <path class="uuid-11399ef6-a852-49c1-9b07-0cb573db156e" d="m103.97,382.55c-1.53-1.51-3.67-1.3-5.51-1.92-17.92-6.02-27.83-18.68-31.15-37.03-4.11-22.72-8.4-45.4-12.62-68.1,51.34.02,102.69.03,154.03.05-1.87,9.96-3.75,19.92-5.59,29.88-2.4,13-4.7,26.03-7.18,39.02-3.37,17.62-13.1,29.98-30.36,35.86-2.77.94-5.66,1.51-8.5,2.25h-53.13Z"/>
    <path class="uuid-d8f60de8-c707-4adb-a243-dfd126a337d3" d="m157.1,382.55c2.84-.74,5.73-1.3,8.5-2.25,17.26-5.88,26.98-18.24,30.36-35.86,2.49-12.99,4.78-26.01,7.18-39.02,1.84-9.96,3.73-19.92,5.59-29.88,7.24,0,14.49-.02,21.73-.02,5.72,0,11.44.01,17.16.02-4.48,23.92-8.87,47.86-13.47,71.76-3.43,17.81-17.42,31.31-35.42,34.57-.44.08-.82.44-1.23.67h-40.41Z"/>
    <path class="uuid-69204812-78c5-4a20-bc3c-762047b7f6ad" d="m100.96,84.09c1.35-.61,1.31-2,1.71-3.13,9.34-26.38,22.24-50.79,40.17-72.4,2.53-3.05,4.97-6.21,8.24-8.57.02,1.87.04,3.74.04,5.6,0,79.7.02,159.4.03,239.1-.76,0-1.53,0-2.29,0-.18-.84-.29-1.7-.55-2.52-3.93-12.63-9.26-24.68-15.59-36.26-6.99-12.81-15.59-24.46-25.84-34.9-7.81-7.94-16.67-14.48-26.04-20.38-13.96-8.8-27.97-17.5-41.96-26.25-2.38-8.88-4.99-17.7-6.39-26.82-3.09-20.2-2.42-40.2,2.92-59.97.35-1.28.14-3.11,1.98-3.7,3.11,7.61,7.25,14.71,10.96,22.02,11.62,22.88,23.07,45.85,34.43,68.87,2.19,4.43,4.09,8.99,6.52,13.41.85-.84,1.11-1.64,1.19-2.52,1.03-12.26,3.7-24.2,6.6-36.12,1.25-5.16,3.81-10.01,3.88-15.46Z"/>
    <path class="uuid-fdb55a12-ab96-4199-8195-df2518b80661" d="m151.14,244.7c0-79.7-.02-159.4-.03-239.1,0-1.87-.03-3.74-.04-5.6,3.16,1.28,4.74,4.25,6.77,6.64,19.45,22.9,33.43,48.84,42.65,77.39,6.31,18.72,10.05,38,12.51,57.64,6.89-13.68,13.38-27.4,19.99-41.06,9.71-20.05,19.52-40.06,29.25-60.1,1.03-2.11,1.76-4.36,2.64-6.55,2.07.57,1.73,2.6,2.11,3.96,4.49,16.34,5.48,32.95,4.01,49.81-1.09,12.55-4,24.67-7.65,36.66-10.94,6.84-21.84,13.73-32.82,20.5-15.57,9.61-30.54,19.83-42.49,34.07-10.82,12.89-19.24,27.14-26.14,42.34-3.43,7.55-6.51,15.29-8.56,23.38-.73,0-1.46,0-2.19,0Z"/>
    <path class="uuid-fdb55a12-ab96-4199-8195-df2518b80661" d="m38.87,124.39c13.99,8.74,28,17.45,41.96,26.25,9.37,5.9,18.23,12.44,26.04,20.38,10.26,10.44,18.85,22.09,25.84,34.9,6.32,11.59,11.66,23.63,15.59,36.26.25.82.37,1.68.55,2.52-5.49,0-10.98,0-16.47,0-1.53-1.37-3.56-1.72-5.3-2.64-14.65-7.78-28.19-17.08-40.87-27.84-13.91-11.81-26.24-25.07-37.85-39.02-13.19-15.87-24.9-32.85-35.64-50.47-4.06-6.67-8.45-13.19-11.27-20.55,11.49,4.93,22.05,11.57,32.9,17.68,1.5.85,3.01,1.68,4.51,2.53Z"/>
    <path class="uuid-69204812-78c5-4a20-bc3c-762047b7f6ad" d="m153.33,244.7c2.05-8.09,5.13-15.83,8.56-23.38,6.9-15.2,15.32-29.45,26.14-42.34,11.96-14.24,26.93-24.46,42.49-34.07,10.97-6.78,21.88-13.67,32.82-20.5,10.63-5.85,21.25-11.71,31.89-17.53,1.51-.82,3.15-1.41,4.73-2.11.32,2.04-.84,3.61-1.77,5.19-3.64,6.21-7.28,12.42-11.07,18.54-15.06,24.33-32.39,46.94-51.96,67.82-6.21,6.62-13.03,12.59-19.91,18.51-11.05,9.5-22.81,17.91-35.64,24.88-3.01,1.63-6.47,2.52-9,5.02-5.76,0-11.52-.02-17.29-.03Z"/>
    <path class="uuid-2c4e36ac-3cda-4f1d-98af-fa099bb956a8" d="m153.33,244.7c5.76,0,11.52.02,17.29.03,1.62.04,3.24.1,4.86.11,18.32.04,36.64.06,54.96.09.01,10.2.02,20.4.04,30.59-7.24,0-14.49.02-21.73.02-51.34-.02-102.69-.03-154.03-.05-3.33-.41-6.7.04-10.04-.58-7.83-1.44-13.14-8.33-12.49-16.49.58-7.34,6.93-13.38,14.43-13.58,4.73-.13,9.46-.08,14.19-.11,23.86-.01,47.73-.02,71.6-.03,5.49,0,10.98,0,16.47,0,.76,0,1.53,0,2.29,0,.73,0,1.46,0,2.19,0Z"/>
    <path class="uuid-41eb2580-9108-409c-93df-d774825ed8f0" d="m230.43,244.93c-18.32-.03-36.64-.06-54.96-.09-1.62,0-3.24-.07-4.86-.11,2.53-2.5,5.99-3.39,9-5.02,12.82-6.97,24.59-15.38,35.64-24.88,6.88-5.92,13.71-11.89,19.91-18.51,19.57-20.88,36.9-43.49,51.96-67.82,3.79-6.12,7.43-12.33,11.07-18.54.93-1.58,2.09-3.15,1.77-5.19.67-.6,1.36-.83,1.63.28.28,1.21.47,2.46.52,3.7,1.03,26.67-1.23,53.03-9.03,78.61-7.74,25.37-23.93,43.84-47.85,55.43-1.23.59-2.43,1.24-3.64,1.87-3.72.09-7.43.18-11.15.27Z"/>
    <path class="uuid-2c4e9ae8-3cc0-4580-9d7b-cb8c452a2a42" d="m132.38,244.72c-23.87.01-47.73.02-71.6.03-6.89-3.68-13.89-7.17-20.13-11.99-19-14.69-29.69-34.29-34.67-57.48C1.53,154.51-.53,133.56.12,112.33c.08-2.75-.16-5.61,1.34-8.15,2.82,7.36,7.21,13.88,11.27,20.55,10.73,17.62,22.44,34.61,35.64,50.47,11.6,13.95,23.94,27.21,37.85,39.02,12.67,10.77,26.22,20.07,40.87,27.84,1.74.93,3.78,1.28,5.3,2.64Z"/>
    <path class="uuid-2c4e9ae8-3cc0-4580-9d7b-cb8c452a2a42" d="m264.87,33.97c-.87,2.19-1.61,4.44-2.64,6.55-9.73,20.05-19.54,40.05-29.25,60.1-6.61,13.66-13.1,27.38-19.99,41.06-2.46-19.65-6.2-38.93-12.51-57.64,4.22-3.34,6.86-8.06,10.41-11.98,14.31-15.78,30.81-28.49,50.47-36.91,1.13-.48,2.33-.79,3.5-1.18Z"/>
    <path class="uuid-41eb2580-9108-409c-93df-d774825ed8f0" d="m100.96,84.09c-.07,5.45-2.62,10.3-3.88,15.46-2.89,11.92-5.56,23.87-6.6,36.12-.07.88-.34,1.68-1.19,2.52-2.43-4.41-4.33-8.98-6.52-13.41-11.36-23.01-22.81-45.99-34.43-68.87-3.71-7.31-7.85-14.41-10.96-22.02,9.71,2.98,18.25,8.24,26.55,13.9,14.5,9.88,26.84,21.99,37.02,36.3Z"/>
    <path class="uuid-fdbd4608-a051-4288-b1d4-e97fd5684bec" d="m230.43,244.93c3.72-.09,7.44-.18,11.15-.27,4.24.04,8.47.07,12.71.12,9.21.11,15.73,6.21,15.82,14.8.09,9.05-6.4,15.59-15.75,15.85-2.24.06-4.48.08-6.73.11-5.72,0-11.44-.01-17.16-.02-.01-10.2-.02-20.4-.04-30.59Z"/>
  </g>
</svg>