<svg id="uuid-4c853776-727c-4a69-9c4e-aa88469d5fc7" data-name="Слой 1" xmlns="http://www.w3.org/2000/svg" viewBox="0 0 38 48">
  <defs>
    <style>
      .uuid-945c0a62-ebb5-41d9-a734-41d21a551ff2 {
        fill: #80c46e;
      }

      .uuid-945c0a62-ebb5-41d9-a734-41d21a551ff2, .uuid-81bf48ef-e8f5-4cfc-ab17-9d03a4ef0452, .uuid-9d2a87e2-5d70-4454-98fa-7fd42fee5be0, .uuid-768ebb4a-974c-41f6-a89a-c5a8f451015c, .uuid-b079aa9a-f6e4-484b-a3e4-a7bbbafeebd8 {
        stroke-width: 0px;
      }

      .uuid-81bf48ef-e8f5-4cfc-ab17-9d03a4ef0452 {
        fill: #f1a559;
      }

      .uuid-9d2a87e2-5d70-4454-98fa-7fd42fee5be0 {
        fill: #66ad66;
      }

      .uuid-768ebb4a-974c-41f6-a89a-c5a8f451015c {
        fill: #fdc27d;
      }

      .uuid-b079aa9a-f6e4-484b-a3e4-a7bbbafeebd8 {
        fill: #f8ae5d;
      }
    </style>
  </defs>
  <path class="uuid-768ebb4a-974c-41f6-a89a-c5a8f451015c" d="m13.06,48c-.46-.17-.95-.3-1.39-.51-1.86-.88-2.86-2.39-3.22-4.38-.51-2.85-1.05-5.7-1.58-8.55,6.45,0,12.9,0,19.35,0-.23,1.25-.47,2.5-.7,3.75-.3,1.63-.59,3.27-.9,4.9-.42,2.21-1.65,3.76-3.81,4.5-.35.12-.71.19-1.07.28h-6.67Z"/>
  <path class="uuid-b079aa9a-f6e4-484b-a3e4-a7bbbafeebd8" d="m19.73,48c.36-.09.72-.16,1.07-.28,2.17-.74,3.39-2.29,3.81-4.5.31-1.63.6-3.27.9-4.9.23-1.25.47-2.5.7-3.75,1.63,0,3.26,0,4.9,0-.54,2.86-1.11,5.72-1.6,8.59-.44,2.6-2.41,4.45-4.6,4.76-.04,0-.08.05-.11.08h-5.08Z"/>
  <path class="uuid-945c0a62-ebb5-41d9-a734-41d21a551ff2" d="m4.88,15.58c-.3-1.13-.64-2.24-.81-3.4-.38-2.57-.32-5.12.42-7.63.04-.13.02-.29.2-.33.38.92.88,1.79,1.33,2.68,1.53,3.06,3.12,6.1,4.57,9.2.19.41.41.81.65,1.29.06-.15.1-.2.11-.26.1-1.62.48-3.19.85-4.76.15-.62.46-1.2.47-1.85.25-.2.27-.52.36-.79,1.16-3.2,2.78-6.14,4.95-8.76.29-.35.56-.75.99-.97,0,10.23,0,20.46,0,30.69-.1,0-.19,0-.29,0-.02-.11-.04-.21-.07-.32-.56-1.73-1.29-3.38-2.19-4.96-1.44-2.5-3.29-4.62-5.73-6.17-1.93-1.23-3.88-2.44-5.82-3.66Z"/>
  <path class="uuid-9d2a87e2-5d70-4454-98fa-7fd42fee5be0" d="m18.99,30.69c0-10.23,0-20.46,0-30.69.42.11.58.5.83.78,2.46,2.88,4.21,6.14,5.38,9.73.79,2.35,1.27,4.77,1.54,7.35.45-.9.84-1.71,1.23-2.52,1.2-2.51,2.43-5.01,3.65-7.51.47-.96.92-1.92,1.39-2.87.11-.23.11-.53.39-.67.38.95.53,1.95.64,2.95.32,2.85-.06,5.62-.94,8.34-.31.2-.63.41-.94.6-1.43.89-2.85,1.79-4.29,2.67-1.92,1.18-3.58,2.64-4.93,4.45-1.66,2.24-2.86,4.71-3.66,7.38-.09,0-.18,0-.28,0Z"/>
  <path class="uuid-81bf48ef-e8f5-4cfc-ab17-9d03a4ef0452" d="m18.99,30.69c.09,0,.18,0,.28,0,.72,0,1.45,0,2.17,0,1.59,0,3.18.01,4.77.01,1.39,0,2.77-.02,4.16-.03.55,0,1.09,0,1.64.02,1.08.02,1.88.79,1.95,1.79.07,1.02-.73,2.01-1.89,2.07-.31.02-.62,0-.93.01-1.63,0-3.26,0-4.9,0-6.45,0-12.9,0-19.35,0-.4-.05-.81,0-1.22-.07-1.02-.18-1.69-1.03-1.62-2.08.07-.95.9-1.7,1.91-1.71.56,0,1.13,0,1.69-.01,3,0,6,0,8.99,0,.69,0,1.38,0,2.07,0,.1,0,.19,0,.29,0Z"/>
  <path class="uuid-9d2a87e2-5d70-4454-98fa-7fd42fee5be0" d="m18.7,30.69c-.69,0-1.38,0-2.07,0-.44-.23-.88-.46-1.32-.69-1.83-.98-3.46-2.22-5-3.6-.92-.82-1.79-1.69-2.62-2.61-.85-.94-1.66-1.9-2.44-2.89-1.33-1.68-2.52-3.45-3.64-5.27-.51-.84-1.08-1.65-1.42-2.58,1.29.53,2.47,1.28,3.69,1.96.34.19.67.38,1.01.57,1.94,1.22,3.88,2.43,5.82,3.66,2.45,1.56,4.3,3.67,5.73,6.17.91,1.58,1.63,3.23,2.19,4.96.03.1.05.21.07.32Z"/>
  <path class="uuid-945c0a62-ebb5-41d9-a734-41d21a551ff2" d="m21.43,30.69c-.72,0-1.45,0-2.17,0,.79-2.67,1.99-5.14,3.66-7.38,1.35-1.81,3.01-3.27,4.93-4.45,1.43-.88,2.86-1.78,4.29-2.67.32-.2.63-.4.94-.6,1.33-.73,2.67-1.47,4-2.2.19-.1.4-.17.59-.26.05.26-.1.45-.22.65-.51.86-1.01,1.72-1.54,2.56-1.88,3.02-4.06,5.82-6.51,8.41-.74.78-1.55,1.49-2.37,2.19-1.38,1.19-2.86,2.25-4.47,3.12-.38.21-.81.32-1.13.63Z"/>
  <path class="uuid-9d2a87e2-5d70-4454-98fa-7fd42fee5be0" d="m21.43,30.69c.32-.31.75-.42,1.13-.63,1.61-.87,3.09-1.93,4.47-3.12.82-.7,1.63-1.41,2.37-2.19,2.44-2.59,4.62-5.38,6.51-8.41.53-.85,1.03-1.71,1.54-2.56.12-.2.27-.39.22-.65,0,0,0,0,0,0,.06,0,.13,0,.19,0,.19,1.17.13,2.34.07,3.51-.1,2.13-.41,4.24-.97,6.31-.94,3.48-3.04,5.99-6.28,7.55-.11.05-.22.11-.33.17-1.39,0-2.77.02-4.16.03-1.59,0-3.18,0-4.77-.01Z"/>
  <path class="uuid-945c0a62-ebb5-41d9-a734-41d21a551ff2" d="m.19,13.05c.34.93.9,1.74,1.42,2.58,1.12,1.82,2.31,3.59,3.64,5.27.78.99,1.59,1.96,2.44,2.89.83.92,1.7,1.78,2.62,2.61,1.54,1.38,3.18,2.62,5,3.6.44.24.88.46,1.32.69-3,0-6,0-8.99,0-.91-.49-1.83-.94-2.64-1.59-1.98-1.59-3.3-3.59-3.96-6.04C.24,20.1-.08,17.09.02,14.03c.01-.33-.04-.68.17-.98Z"/>
  <path class="uuid-945c0a62-ebb5-41d9-a734-41d21a551ff2" d="m33.38,4.3c-.28.13-.28.44-.39.67-.47.95-.93,1.91-1.39,2.87-1.22,2.5-2.45,5-3.65,7.51-.39.81-.78,1.62-1.23,2.52-.27-2.58-.75-4.99-1.54-7.35.53-.42.86-1.01,1.31-1.5,1.81-1.99,3.9-3.6,6.39-4.65.15-.06.31-.25.5-.06Z"/>
  <path class="uuid-9d2a87e2-5d70-4454-98fa-7fd42fee5be0" d="m12.68,10.52c0,.65-.32,1.23-.47,1.85-.37,1.57-.75,3.14-.85,4.76,0,.06-.04.11-.11.26-.24-.48-.46-.88-.65-1.29-1.45-3.1-3.04-6.14-4.57-9.2-.45-.89-.95-1.76-1.33-2.68,1.27.38,2.38,1.08,3.45,1.82,1.77,1.23,3.28,2.72,4.53,4.48Z"/>
  <path class="uuid-945c0a62-ebb5-41d9-a734-41d21a551ff2" d="m37.87,13.14c-.06,0-.13,0-.19,0,.07-.1.14-.16.19,0Z"/>
</svg>