<?xml version="1.0" encoding="UTF-8"?>
<svg id="uuid-fcc5f135-042b-43d2-b044-d6d6ad43f797" data-name="nime" xmlns="http://www.w3.org/2000/svg" viewBox="0 0 512 631">
  <defs>
    <style>
      .uuid-0330a7d8-f3ef-47d1-8511-e2bd8d63f461 {
        stroke-width: 0px;
      }
    </style>
  </defs>
  <g id="uuid-49e56358-c4c7-464a-a9a0-25a630a187e6" data-name="group">
    <path id="uuid-2c7fde6a-1ce6-4c38-9a55-a8d11dab61cc" data-name="contur" class="uuid-0330a7d8-f3ef-47d1-8511-e2bd8d63f461" d="m437,631H75c-1.28-.27-2.54-.68-3.83-.8-28.78-2.84-50.1-16.97-63.01-42.81-3.79-7.59-5.5-16.23-8.16-24.38C0,398.67,0,234.33,0,70c.28-.76.69-1.5.83-2.29C6.55,35.4,25.31,14.33,56.13,3.79,60.96,2.14,66.04,1.24,71,0,77,0,83,0,89,0c1.26.33,2.5.81,3.78.96,24.1,2.91,48.17,6.12,72.32,8.57,34.44,3.5,68.96,5.99,103.62,5.16,40.95-.98,81.67-5.09,122.3-10.02C401.71,3.38,412.34,1.57,423,0c6,0,12,0,18,0,1.08.33,2.15.75,3.26.96,29.3,5.44,50.37,21.45,62.07,49,2.69,6.34,3.82,13.34,5.67,20.04v493c-.31.73-.77,1.43-.89,2.18-5.4,33.14-29.83,58.06-62.94,64.1-3.7.68-7.44,1.15-11.17,1.72Z"/>
  </g>
</svg>