<svg id="uuid-9a1e8d83-db97-4fc0-904c-ff4647256fc5" data-name="Слой 1" xmlns="http://www.w3.org/2000/svg" viewBox="0 0 26 26">
  <defs>
    <style>
      .uuid-8a413294-2258-4997-ae51-fdaf5181980d {
        stroke-width: 0px;
      }
    </style>
  </defs>
  <path class="uuid-8a413294-2258-4997-ae51-fdaf5181980d" d="m11.53,0c.38.05.77.1,1.15.15,4.52.67,8.21,4.22,9,8.7.59,3.36-.28,6.34-2.49,8.94-.04.05-.08.09-.12.13,0,.01-.01.03-.02.06.04.05.09.11.14.16,2.1,2.07,4.21,4.14,6.31,6.21.19.19.33.41.5.62v.36c-.12.32-.35.53-.66.66h-.36c-.23-.18-.49-.33-.69-.53-2.1-2.05-4.19-4.11-6.28-6.17-.05-.05-.11-.1-.18-.17-.07.05-.14.09-.21.14-2.08,1.57-4.43,2.31-7.03,2.25-4.86-.13-9.09-3.49-10.25-8.14-.14-.58-.2-1.18-.29-1.77-.01-.07-.03-.14-.05-.22,0-.41,0-.81,0-1.22.02-.08.04-.16.05-.24.06-.43.09-.86.18-1.28C1.17,4.1,4.99.61,9.59.1c.24-.03.48-.07.72-.1.41,0,.81,0,1.22,0Zm-.58,19.89c1.09,0,2.05-.17,3.11-.53,4.21-1.44,6.77-5.76,6.02-10.12-.81-4.71-5.3-8.23-10.48-7.49-2.29.32-4.22,1.37-5.72,3.14-1.89,2.23-2.59,4.8-2.02,7.67.87,4.31,4.68,7.36,9.09,7.34Z"/>
</svg>