<?xml version="1.0" encoding="UTF-8"?>
<svg id="uuid-1b47e9ea-2ddd-402d-a1ea-98751dddd0a9" data-name="Слой 1" xmlns="http://www.w3.org/2000/svg" viewBox="0 0 408.35 408.26">
  <defs>
    <style>
      .uuid-d7656cbe-4d25-4c29-86dd-fe692c0559c4 {
        stroke-width: 0px;
      }
    </style>
  </defs>
  <path class="uuid-d7656cbe-4d25-4c29-86dd-fe692c0559c4" d="m183.28,0c13.81,0,27.63,0,41.44,0,1.18.51,2.32,1.34,3.54,1.48,43.75,5.25,82.19,22.44,114.04,52.85,56.09,53.54,77.32,119.28,60.38,194.67-24.52,109.11-128.9,177.53-237.97,154.94C79.96,386.39,26.71,332.71,4.91,248.59,2.88,240.74,1.62,232.68,0,224.72c0-13.81,0-27.63,0-41.44,1.28-6.67,2.27-13.4,3.89-19.99C24.48,79.39,76.19,26.08,160.25,4.79,167.85,2.86,175.6,1.58,183.28,0Zm-28.54,224.16c-49.03-38.3-44.67-98.47-11.84-131.84,33.12-33.67,87.61-33.99,121.69-.45,32.43,31.91,38.98,92.95-11.17,132.24,44.37,18.12,72.89,50.47,86.56,96.3,56.1-61.33,63.25-170.02-8.35-243.02-69.56-70.91-187.2-70.47-255.92.62-71.53,73.99-62.88,182.56-7.58,242.43,6.33-21.89,16.46-41.33,31.5-58.23,15.14-17.02,33.4-29.28,55.11-38.06Zm49.03,159.8c41.14-.72,78.24-12.89,110.58-38.37,2.34-1.84,4.36-6.23,3.96-9.08-7.76-54.67-59.3-98-114.95-97.03-56.39.98-103.21,40.61-113.73,96.03-.93,4.91.5,7.71,4.34,10.66,32.45,24.92,69.25,36.99,109.8,37.78Zm.22-169.54c33.74.02,62.1-28.34,61.82-61.81-.28-33.43-27.81-61.78-61.4-61.49-34.38.3-61.1,25.54-62.09,61.47-.92,33.41,27.91,61.8,61.67,61.82Z"/>
</svg>